<?xml version="1.0" standalone="no"?><!DOCTYPE svg PUBLIC "-//W3C//DTD SVG 1.1//EN" "http://www.w3.org/Graphics/SVG/1.1/DTD/svg11.dtd"><svg t="1641551976380" class="icon" viewBox="0 0 1024 1024" version="1.1" xmlns="http://www.w3.org/2000/svg" p-id="2117" xmlns:xlink="http://www.w3.org/1999/xlink" width="200" height="200"><defs><style type="text/css"></style></defs><path d="M661.944889 73.144889H146.289778a36.679111 36.679111 0 0 0-36.579556 36.565333v804.579556a36.679111 36.679111 0 0 0 36.579556 36.565333h731.420444a36.679111 36.679111 0 0 0 36.579556-36.565333v-588.8L661.944889 73.144889z" fill="#8DDE83" p-id="2118"></path><path d="M661.944889 288.910222a36.679111 36.679111 0 0 0 36.565333 36.579556h215.779556L661.944889 73.144889v215.765333z" fill="#BCFFB3" p-id="2119"></path><path d="M332.8 605.255111l-31.089778-10.965333 104.234667-32.924445v-71.310222L204.8 568.689778v53.020444l201.144889 78.634667v-71.310222L332.8 605.255111z m106.055111 193.834667h58.510222l80.469334-362.055111h-58.524445l-80.455111 362.055111zM819.2 566.855111l-201.144889-76.8v71.310222l73.144889 21.944889 31.089778 10.979556-104.234667 34.744889v71.310222L819.2 621.710222v-54.855111z" fill="#FFFFFF" p-id="2120"></path></svg>