<?xml version="1.0" standalone="no"?><!DOCTYPE svg PUBLIC "-//W3C//DTD SVG 1.1//EN" "http://www.w3.org/Graphics/SVG/1.1/DTD/svg11.dtd"><svg t="1641551949726" class="icon" viewBox="0 0 1024 1024" version="1.1" xmlns="http://www.w3.org/2000/svg" p-id="1977" xmlns:xlink="http://www.w3.org/1999/xlink" width="200" height="200"><defs><style type="text/css"></style></defs><path d="M661.944889 82.289778H146.289778a36.679111 36.679111 0 0 0-36.579556 36.565333V923.448889a36.679111 36.679111 0 0 0 36.579556 36.565333h731.420444a36.679111 36.679111 0 0 0 36.579556-36.565333v-588.8L661.944889 82.289778z" fill="#FCD165" p-id="1978"></path><path d="M259.697778 724.295111c21.191111 0 38.272-4.437333 51.228444-13.312a68.152889 68.152889 0 0 0 26.808889-35.328c3.669333-11.235556 5.504-27.264 5.504-48.128V468.024889h-50.702222v162.773333c0 20.394667-2.360889 33.834667-7.054222 40.305778-4.693333 6.471111-12.714667 9.713778-24.064 9.713778-11.235556 0-19.584-4.536889-25.088-13.582222-3.669333-5.959111-5.788444-16.156444-6.357334-30.592l-47.957333 5.504c0.113778 26.922667 6.869333 47.345778 20.280889 61.269333 13.411556 13.923556 32.540444 20.878222 57.400889 20.878222z m172.558222-4.295111v-95.047111h33.166222c23.04 0 40.618667-1.208889 52.764445-3.612445 8.931556-1.948444 17.735111-5.930667 26.382222-11.946666 8.647111-6.016 15.786667-14.293333 21.404444-24.832 5.603556-10.538667 8.419556-23.552 8.419556-39.011556 0-20.053333-4.878222-36.408889-14.606222-49.066666-9.742222-12.657778-21.831111-20.892444-36.266667-24.675556-9.400889-2.517333-29.568-3.783111-60.501333-3.783111h-81.635556v251.975111h50.872889z m27.832889-137.841778h-27.832889v-71.495111h28.700444c16.042667 0.085333 26.88 0.654222 32.483556 1.706667 8.248889 1.493333 15.075556 5.219556 20.451556 11.178666 5.390222 5.959111 8.078222 13.511111 8.078222 22.684445 0 7.452444-1.92 13.980444-5.76 19.598222-3.84 5.617778-9.130667 9.742222-15.900445 12.373333-6.755556 2.631111-20.167111 3.953778-40.220444 3.953778z m259.171555 142.136889c20.750222 0 41.230222-3.925333 61.44-11.776 20.238222-7.850667 35.669333-16.924444 46.336-27.235555v-100.380445h-109.653333v42.453333h58.254222v31.971556c-7.68 5.959111-16.867556 11.022222-27.591111 15.217778a87.608889 87.608889 0 0 1-32.042666 6.257778c-21.546667 0-38.968889-7.466667-52.252445-22.414223-13.297778-14.961778-19.939556-37.390222-19.939555-67.299555 0-27.733333 6.556444-48.64 19.683555-62.72 13.112889-14.108444 30.791111-21.148444 53.020445-21.148445 14.663111 0 26.894222 3.584 36.693333 10.737778 9.799111 7.168 16.469333 16.924444 20.024889 29.297778l50.531555-9.443556c-5.034667-23.139556-16.355556-41.272889-33.948444-54.4-17.578667-13.112889-42.026667-19.683556-73.301333-19.683555-24.064 0-44.174222 4.181333-60.330667 12.558222-21.191111 10.88-37.290667 26.524444-48.298667 46.919111-10.993778 20.394667-16.497778 43.704889-16.497778 69.944889 0 24.177778 4.935111 46.549333 14.791112 67.128889 9.841778 20.565333 24.576 36.366222 44.16 47.431111 19.598222 11.050667 42.567111 16.583111 68.920888 16.583111z" fill="#FFFFFF" p-id="1979"></path><path d="M661.944889 298.055111a36.679111 36.679111 0 0 0 36.565333 36.579556h215.779556L661.944889 82.289778v215.765333z" fill="#FFE3A6" p-id="1980"></path></svg>