<?xml version="1.0" standalone="no"?><!DOCTYPE svg PUBLIC "-//W3C//DTD SVG 1.1//EN" "http://www.w3.org/Graphics/SVG/1.1/DTD/svg11.dtd"><svg t="1641554707767" class="icon" viewBox="0 0 1024 1024" version="1.1" xmlns="http://www.w3.org/2000/svg" p-id="867" xmlns:xlink="http://www.w3.org/1999/xlink" width="200" height="200"><defs><style type="text/css"></style></defs><path d="M661.944889 82.289778H146.289778a36.679111 36.679111 0 0 0-36.579556 36.565333V923.448889a36.679111 36.679111 0 0 0 36.579556 36.565333h731.420444a36.679111 36.679111 0 0 0 36.579556-36.565333v-588.8L661.944889 82.289778z" fill="#EC5C59" p-id="868"></path><path d="M661.944889 298.055111a36.679111 36.679111 0 0 0 36.565333 36.579556h215.779556L661.944889 82.289778v215.765333z" fill="#EA8B8B" p-id="869"></path><path d="M298.055111 424.234667h-84.110222V778.951111h56.689778V654.648889h29.255111c62.165333 0 98.744889-43.889778 98.744889-118.869333-1.834667-73.130667-34.744889-111.530667-100.579556-111.530667zM268.8 486.4h23.765333c34.744889 0 47.544889 14.634667 47.544889 51.2 0 38.4-14.620444 56.689778-45.710222 56.689778h-25.6V486.4z m235.889778-62.165333H433.351111V778.951111h73.144889c76.8 0 122.524444-65.820444 122.524444-179.2 0-111.530667-43.889778-175.530667-124.344888-175.530667z m-14.634667 64h10.979556c47.530667 0 71.310222 36.565333 71.310222 113.365333s-23.779556 115.2-71.310222 115.2h-10.979556V488.234667z m338.289778 1.820444V424.248889H669.255111V778.951111h56.689778v-140.8h87.765333v-65.820444h-87.765333v-82.289778h102.4z" fill="#FFFFFF" p-id="870"></path></svg>