<?xml version="1.0" standalone="no"?><!DOCTYPE svg PUBLIC "-//W3C//DTD SVG 1.1//EN" "http://www.w3.org/Graphics/SVG/1.1/DTD/svg11.dtd"><svg t="1641554742853" class="icon" viewBox="0 0 1024 1024" version="1.1" xmlns="http://www.w3.org/2000/svg" p-id="1007" xmlns:xlink="http://www.w3.org/1999/xlink" width="200" height="200"><defs><style type="text/css"></style></defs><path d="M661.944889 73.144889H146.289778a36.679111 36.679111 0 0 0-36.579556 36.565333v804.579556a36.679111 36.679111 0 0 0 36.579556 36.565333h731.420444a36.679111 36.679111 0 0 0 36.579556-36.565333v-588.8L661.944889 73.144889z" fill="#30A8FF" p-id="1008"></path><path d="M661.944889 288.910222a36.679111 36.679111 0 0 0 36.565333 36.579556h215.779556L661.944889 73.144889v215.765333z" fill="#84CBFF" p-id="1009"></path><path d="M292.565333 415.089778h-84.110222v354.744889h56.689778v-124.344889H294.4c62.165333 0 98.744889-43.889778 98.744889-118.855111 0-73.144889-34.744889-111.544889-100.579556-111.544889z m-27.420444 62.165333h23.765333c34.744889 0 47.544889 14.634667 47.544889 51.2 0 38.4-14.620444 56.689778-45.710222 56.689778h-25.6v-107.889778z m279.765333 93.255111L512 552.248889l-1.834667-1.834667c-20.110222-10.965333-34.730667-20.110222-34.730666-42.055111 0-20.110222 10.965333-32.910222 31.075555-32.910222 18.289778 0 32.924444 9.130667 49.379556 27.420444l3.655111 3.655111 29.255111-49.365333-1.834667-1.834667C566.855111 426.055111 537.6 409.6 506.510222 409.6c-51.2 0-87.765333 43.889778-87.765333 104.234667 0 54.855111 27.420444 82.275556 51.2 96.910222l34.744889 21.944889c20.110222 12.8 32.910222 20.110222 32.910222 42.055111 0 23.765333-12.8 36.565333-34.744889 36.565333-20.110222 0-42.055111-14.620444-58.510222-36.565333l-3.655111-3.655111-32.924445 54.855111 1.834667 1.820444c23.765333 32.924444 58.510222 53.034667 91.434667 53.034667 54.855111 0 93.255111-43.889778 93.255111-107.889778 1.820444-51.2-14.634667-82.275556-49.379556-102.4z m157.255111-155.420444h-71.310222v354.744889H704c76.8 0 122.510222-65.834667 122.510222-179.2 0-111.544889-43.875556-175.544889-124.344889-175.544889z m-14.620444 64h10.965333c47.544889 0 71.324444 36.565333 71.324445 113.365333s-23.779556 115.2-71.324445 115.2h-10.965333V479.089778z" fill="#FFFFFF" p-id="1010"></path></svg>