<?xml version="1.0" standalone="no"?><!DOCTYPE svg PUBLIC "-//W3C//DTD SVG 1.1//EN" "http://www.w3.org/Graphics/SVG/1.1/DTD/svg11.dtd"><svg t="1641551917906" class="icon" viewBox="0 0 1024 1024" version="1.1" xmlns="http://www.w3.org/2000/svg" p-id="1703" xmlns:xlink="http://www.w3.org/1999/xlink" width="200" height="200"><defs><style type="text/css"></style></defs><path d="M661.944889 73.144889H146.289778a36.679111 36.679111 0 0 0-36.579556 36.565333v804.579556a36.679111 36.679111 0 0 0 36.579556 36.565333h731.420444a36.679111 36.679111 0 0 0 36.579556-36.565333v-588.8L661.944889 73.144889z" fill="#108EE9" p-id="1704"></path><path d="M661.944889 288.910222a36.679111 36.679111 0 0 0 36.565333 36.579556h215.779556L661.944889 73.144889v215.765333z" fill="#57A1F2" p-id="1705"></path><path d="M647.310222 420.565333l-27.420444 171.889778c-3.655111 31.089778-9.144889 64-12.8 96.910222a594.858667 594.858667 0 0 0-5.489778-25.6c-5.489778-23.765333-9.144889-47.530667-14.634667-69.475555L546.744889 420.551111h-64l-40.234667 171.889778c-7.310222 32.910222-12.8 64-18.275555 95.089778l-5.489778-43.889778c-1.834667-16.455111-5.489778-34.744889-7.310222-51.2l-31.089778-171.889778h-78.634667l67.655111 354.744889H460.8l38.4-175.544889c3.655111-21.930667 9.144889-43.875556 12.8-65.820444 3.655111 20.110222 7.310222 40.220444 12.8 65.820444l40.234667 173.724445h91.420444l64-351.089778v-3.655111h-73.144889v1.820444z" fill="#FFFFFF" p-id="1706"></path></svg>