<?xml version="1.0" standalone="no"?><!DOCTYPE svg PUBLIC "-//W3C//DTD SVG 1.1//EN" "http://www.w3.org/Graphics/SVG/1.1/DTD/svg11.dtd"><svg t="1641551473568" class="icon" viewBox="0 0 1024 1024" version="1.1" xmlns="http://www.w3.org/2000/svg" p-id="1286" xmlns:xlink="http://www.w3.org/1999/xlink" width="200" height="200"><defs><style type="text/css"></style></defs><path d="M661.944889 73.144889H146.289778a36.679111 36.679111 0 0 0-36.579556 36.565333v804.579556a36.679111 36.679111 0 0 0 36.579556 36.565333h731.420444a36.679111 36.679111 0 0 0 36.579556-36.565333v-588.8L661.944889 73.144889z" fill="#FCD165" p-id="1287"></path><path d="M661.944889 288.910222a36.679111 36.679111 0 0 0 36.565333 36.579556h215.779556L661.944889 73.144889v215.765333z" fill="#FFE3A6" p-id="1288"></path><path d="M334.634667 73.144889h73.130666v73.144889H334.648889V73.144889z m73.130666 73.144889h73.144889v73.144889h-73.144889v-73.144889z m-73.130666 73.144889h73.130666v73.130666H334.648889V219.448889z m73.130666 73.130666h73.144889v73.144889h-73.144889v-73.144889z m-73.130666 73.144889h73.130666v73.144889H334.648889v-73.144889z m109.710222 329.144889H371.2a36.679111 36.679111 0 0 1-36.565333-36.565333V548.551111h146.275555v109.724445c0 20.110222-14.620444 36.565333-36.565333 36.565333z m-36.579556-256h73.144889V512h-73.144889v-73.144889z" fill="#FFFFFF" p-id="1289"></path></svg>