<?xml version="1.0" standalone="no"?><!DOCTYPE svg PUBLIC "-//W3C//DTD SVG 1.1//EN" "http://www.w3.org/Graphics/SVG/1.1/DTD/svg11.dtd"><svg t="1641551402264" class="icon" viewBox="0 0 1024 1024" version="1.1" xmlns="http://www.w3.org/2000/svg" p-id="867" xmlns:xlink="http://www.w3.org/1999/xlink" width="200" height="200"><defs><style type="text/css"></style></defs><path d="M926.952727 910.615273H95.813818a39.68 39.68 0 0 1-39.959273-39.330909V225.792c0-21.969455 18.152727-39.330909 39.959273-39.330909H926.952727c22.318545 0 39.959273 17.873455 39.959273 39.330909v645.492364c0 21.946182-18.152727 39.330909-39.959273 39.330909z" fill="#FFA000" p-id="868"></path><path d="M499.712 373.294545H55.854545V158.394182c-0.069818-23.109818 17.338182-41.890909 38.935273-42.007273h303.802182c17.221818 0 32.349091 12.008727 37.422545 29.998546l63.697455 226.955636z" fill="#FFA000" p-id="869"></path><path d="M858.763636 863.883636H187.345455c-21.248 0-38.074182-17.664-38.074182-38.865454V295.400727c0-21.713455 17.291636-38.865455 38.074182-38.865454H858.763636c21.271273 0 38.074182 17.687273 38.074182 38.865454V825.018182c0.465455 21.201455-16.802909 38.865455-38.074182 38.865454z" fill="#FFFFFF" p-id="870"></path><path d="M926.952727 910.615273H95.813818c-22.318545 0-39.959273-17.710545-39.959273-38.958546V365.568c0-21.76 18.152727-38.958545 39.959273-38.958545H926.952727c22.318545 0 39.959273 17.710545 39.959273 38.958545v506.088727c0 21.76-18.152727 38.958545-39.959273 38.958546z" fill="#FFCA28" p-id="871"></path><path d="M363.496727 486.260364H145.873455c-10.752 0-19.944727-9.332364-19.944728-21.410909 0-11.543273 8.704-21.434182 19.944728-21.434182h217.111272c10.705455 0 19.921455 9.332364 19.921455 21.434182 0 11.543273-8.704 21.434182-19.409455 21.434181z m0 144.034909H145.873455c-10.752 0-19.944727-9.355636-19.944728-21.434182 0-12.101818 8.704-21.457455 19.944728-21.457455h217.111272c10.705455 0 19.921455 9.355636 19.921455 21.457455s-8.704 21.434182-19.409455 21.434182z" fill="#FFF8E1" p-id="872"></path></svg>