<?xml version="1.0" standalone="no"?><!DOCTYPE svg PUBLIC "-//W3C//DTD SVG 1.1//EN" "http://www.w3.org/Graphics/SVG/1.1/DTD/svg11.dtd"><svg t="1641551456984" class="icon" viewBox="0 0 1024 1024" version="1.1" xmlns="http://www.w3.org/2000/svg" p-id="1146" xmlns:xlink="http://www.w3.org/1999/xlink" width="200" height="200"><defs><style type="text/css"></style></defs><path d="M661.944889 73.144889H146.289778a36.679111 36.679111 0 0 0-36.579556 36.565333v804.579556a36.679111 36.679111 0 0 0 36.579556 36.565333h731.420444a36.679111 36.679111 0 0 0 36.579556-36.565333v-588.8L661.944889 73.144889z" fill="#ACACAC" p-id="1147"></path><path d="M661.944889 288.910222a36.679111 36.679111 0 0 0 36.565333 36.579556h215.779556L661.944889 73.144889v215.765333z" fill="#BFBCBC" p-id="1148"></path><path d="M504.689778 693.034667c-12.8 0-25.6 5.475556-32.924445 14.620444-9.130667 9.144889-14.620444 21.944889-14.620444 36.579556 0 27.420444 20.110222 49.365333 47.544889 49.365333 25.6 0 47.544889-21.944889 47.544889-49.365333 0-14.634667-5.489778-25.6-14.634667-34.744889-9.144889-10.979556-20.110222-16.455111-32.910222-16.455111z m5.475555-341.944889c-40.220444 0-76.8 18.275556-106.055111 51.2l-10.965333 12.8 47.544889 43.875555 10.965333-12.8c14.634667-18.275556 34.744889-27.420444 54.855111-27.420444 12.8 0 23.779556 3.655111 29.255111 10.965333 5.489778 7.324444 9.144889 16.455111 9.144889 29.255111 0 21.944889-14.620444 40.234667-31.075555 60.344889-23.779556 29.255111-53.034667 67.655111-45.724445 124.344889l1.834667 14.634667h69.489778L537.6 640c-3.655111-34.744889 14.634667-58.510222 36.565333-85.944889 20.124444-25.6 43.889778-54.855111 43.889778-96.910222 0-64-43.889778-106.055111-107.889778-106.055111z" fill="#FFFFFF" p-id="1149"></path></svg>