<?xml version="1.0" standalone="no"?><!DOCTYPE svg PUBLIC "-//W3C//DTD SVG 1.1//EN" "http://www.w3.org/Graphics/SVG/1.1/DTD/svg11.dtd"><svg t="1641551893727" class="icon" viewBox="0 0 1024 1024" version="1.1" xmlns="http://www.w3.org/2000/svg" p-id="1562" xmlns:xlink="http://www.w3.org/1999/xlink" width="200" height="200"><defs><style type="text/css"></style></defs><path d="M661.944889 82.289778H146.289778a36.679111 36.679111 0 0 0-36.579556 36.565333V923.448889a36.679111 36.679111 0 0 0 36.579556 36.565333h731.420444a36.679111 36.679111 0 0 0 36.579556-36.565333v-588.8L661.944889 82.289778z" fill="#6A90FF" p-id="1563"></path><path d="M661.944889 298.055111a36.679111 36.679111 0 0 0 36.565333 36.579556h215.779556L661.944889 82.289778v215.765333z" fill="#94AFFF" p-id="1564"></path><path d="M521.144889 705.834667l-84.110222 84.110222a8.832 8.832 0 0 1-12.8 0L320 685.710222c-1.834667-1.820444-1.834667-5.475556-1.834667-7.310222s0-3.655111 1.834667-7.310222l84.110222-84.124445-38.4-38.4-84.110222 84.124445c-12.8 12.8-18.289778 27.420444-18.289778 45.710222s7.324444 32.910222 18.289778 45.710222l104.234667 104.234667c12.8 12.8 29.255111 18.289778 45.710222 18.289778s32.910222-5.489778 45.710222-18.289778l84.110222-84.110222-40.220444-38.4z m-18.289778-217.6l84.110222-84.124445a8.832 8.832 0 0 1 12.8 0l104.234667 104.234667c1.834667 1.820444 1.834667 5.489778 1.834667 7.310222 0 1.834667 0 3.655111-1.834667 7.310222l-82.289778 82.289778 38.4 38.4 84.124445-84.110222c12.8-12.8 18.275556-27.434667 18.275555-45.710222 0-18.289778-7.310222-32.924444-18.275555-45.724445l-106.069334-102.4a64.028444 64.028444 0 0 0-91.420444 0l-84.110222 84.124445 40.220444 38.4z" fill="#FFFFFF" p-id="1565"></path><path d="M426.097778 644.209778l146.104889-146.104889 38.784 38.769778L464.881778 682.951111z" fill="#FFFFFF" p-id="1566"></path></svg>