<?xml version="1.0" standalone="no"?><!DOCTYPE svg PUBLIC "-//W3C//DTD SVG 1.1//EN" "http://www.w3.org/Graphics/SVG/1.1/DTD/svg11.dtd"><svg t="1641551444038" class="icon" viewBox="0 0 1024 1024" version="1.1" xmlns="http://www.w3.org/2000/svg" p-id="1007" xmlns:xlink="http://www.w3.org/1999/xlink" width="200" height="200"><defs><style type="text/css"></style></defs><path d="M661.944889 82.289778H146.289778a36.679111 36.679111 0 0 0-36.579556 36.565333V923.448889a36.679111 36.679111 0 0 0 36.579556 36.565333h731.420444a36.679111 36.679111 0 0 0 36.579556-36.565333v-588.8L661.944889 82.289778z" fill="#8095FF" p-id="1008"></path><path d="M615.210667 398.222222c20.437333 0 37.148444 20.437333 39.011555 42.737778v284.302222C654.222222 749.411556 637.496889 768 617.059556 768H278.940444C258.503111 768 241.777778 749.411556 241.777778 725.262222v-284.302222C241.777778 416.810667 258.503111 398.222222 278.940444 398.222222z m-40.874667 89.187556h-105.898667v42.737778h105.898667v-42.737778z" fill="#FFFFFF" p-id="1009"></path><path d="M768.796444 478.805333c-9.585778-7.210667-21.091556-10.808889-32.597333-9.016889l-93.966222 19.825778C624.981333 493.226667 611.555556 511.246222 611.555556 531.072v104.533333c0 19.825778 13.425778 37.859556 30.677333 41.457778L736.199111 696.888889h7.68c9.585778 0 17.251556-3.598222 24.917333-9.016889 9.585778-7.210667 13.425778-19.825778 13.425778-32.426667V511.232c0-12.615111-3.84-23.424-13.425778-32.440889z" fill="#FFFFFF" opacity=".8" p-id="1010"></path><path d="M661.944889 298.055111a36.679111 36.679111 0 0 0 36.565333 36.579556h215.779556L661.944889 82.289778v215.765333z" fill="#B6C6FF" p-id="1011"></path></svg>