<?xml version="1.0" standalone="no"?><!DOCTYPE svg PUBLIC "-//W3C//DTD SVG 1.1//EN" "http://www.w3.org/Graphics/SVG/1.1/DTD/svg11.dtd"><svg t="1641551875134" class="icon" viewBox="0 0 1024 1024" version="1.1" xmlns="http://www.w3.org/2000/svg" p-id="1424" xmlns:xlink="http://www.w3.org/1999/xlink" width="200" height="200"><defs><style type="text/css"></style></defs><path d="M661.944889 73.144889H146.289778a36.679111 36.679111 0 0 0-36.579556 36.565333v804.579556a36.679111 36.679111 0 0 0 36.579556 36.565333h731.420444a36.679111 36.679111 0 0 0 36.579556-36.565333v-588.8L661.944889 73.144889z" fill="#8450EA" p-id="1425"></path><path d="M661.944889 288.910222a36.679111 36.679111 0 0 0 36.565333 36.579556h215.779556L661.944889 73.144889v215.765333z" fill="#9C72ED" p-id="1426"></path><path d="M696.689778 694.855111V418.744889c0-5.489778 0-9.144889-1.834667-14.634667-5.489778-20.110222-25.6-31.075556-45.710222-25.6L394.951111 449.848889c-16.455111 5.475556-27.420444 20.110222-27.420444 38.4v243.2c-12.8-1.834667-29.255111-1.834667-43.889778 5.475555-31.089778 14.634667-47.544889 47.544889-34.744889 73.144889 10.979556 25.6 47.544889 34.744889 78.634667 20.110223 16.455111-7.310222 29.255111-20.110222 34.744889-34.730667V793.6c3.655111-9.144889 3.655111-20.110222 1.820444-29.255111V625.351111l254.179556-69.475555V665.6c-12.8-3.655111-29.255111-1.834667-43.889778 5.489778-31.089778 14.620444-47.544889 47.544889-34.744889 73.144889 10.979556 25.6 47.544889 34.730667 78.634667 20.110222 16.455111-7.310222 29.255111-21.944889 34.744888-36.579556v-1.820444c5.475556-10.979556 7.310222-21.944889 3.655112-31.089778z m-36.579556-179.2l-252.344889 69.489778V522.951111c3.669333 0 7.324444 0 9.144889-1.820444l243.2-67.655111v62.165333z" fill="#FFFFFF" p-id="1427"></path></svg>